<svg width="180" height="180" viewBox="0 0 180 180" fill="none" xmlns="http://www.w3.org/2000/svg">
<rect width="180" height="180" fill="#08020C"/>
<g clip-path="url(#clip0_1134_1480)">
<path d="M56.1757 85.8765L53.6237 89.4806H43.8247V91.7074H53.6237V95.0825H43.8247V97.5158H56.1757V101.189H39.2334V85.8765H56.1757Z" fill="white"/>
<path d="M93.0753 85.8765L90.5234 89.4806H81.5507V92.3734H90.5234V95.8857H81.5507V101.189H76.8901V85.8765H93.075H93.0753Z" fill="white"/>
<path d="M99.447 85.8765V97.2861H110.329L107.777 101.189H94.5571V85.8765H99.447Z" fill="white"/>
<path d="M128.753 85.8765L126.201 89.4806H116.402V91.7074H126.201V95.0825H116.402V97.5158H128.753V101.189H111.811V85.8765H128.753Z" fill="white"/>
<path d="M137.215 85.8763L141.92 91.2481L153.549 79H160L145.778 93.4521L153.491 101.189H146.948L141.92 95.6789L136.939 101.189H130.235L138.064 93.4521L130.832 85.8766H137.215L137.215 85.8763Z" fill="white"/>
<path d="M37.751 91.4774C37.751 88.384 35.2432 85.8761 32.1498 85.8761H30.4915L20 85.8735V101.188H24.6605V97.2166H32.1501C35.2435 97.2166 37.7514 94.7087 37.7514 91.6153V91.4774H37.751ZM33.0915 93.6128H24.6605V89.4803H33.0918V93.6128H33.0915Z" fill="white"/>
<path d="M69.807 85.8761H68.1487L57.6572 85.8735V101.188H62.3178V97.2166H67.6684L70.3413 101.188H75.4086L72.3005 96.632C74.1427 95.7148 75.4086 93.8131 75.4086 91.6153V91.4774C75.4086 88.384 72.9007 85.8761 69.8073 85.8761H69.807ZM62.3178 89.4803H70.749V93.6128H62.3178V89.4803Z" fill="white"/>
</g>
<defs>
<clipPath id="clip0_1134_1480">
<rect width="140" height="22.1884" fill="white" transform="translate(20 79)"/>
</clipPath>
</defs>
</svg>
