<svg width="230" height="30" viewBox="0 0 230 30" fill="none" xmlns="http://www.w3.org/2000/svg">
<rect x="184.5" y="7.5" width="43.4596" height="21.178" rx="10.589" fill="#9F03FF" fill-opacity="0.24"/>
<rect x="184.5" y="7.5" width="43.4596" height="21.178" rx="10.589" stroke="url(#paint0_linear_1147_1796)"/>
<path d="M192 22.1V13H196.082C197.131 13 197.937 13.2123 198.5 13.637C199.063 14.053 199.345 14.625 199.345 15.353C199.345 15.847 199.232 16.263 199.007 16.601C198.79 16.939 198.496 17.199 198.123 17.381C197.75 17.563 197.347 17.654 196.914 17.654L197.148 17.264C197.668 17.264 198.127 17.355 198.526 17.537C198.925 17.719 199.241 17.9877 199.475 18.343C199.709 18.6897 199.826 19.123 199.826 19.643C199.826 20.423 199.531 21.0297 198.942 21.463C198.361 21.8877 197.495 22.1 196.342 22.1H192ZM193.3 21.047H196.29C197.009 21.047 197.56 20.9257 197.941 20.683C198.322 20.4403 198.513 20.059 198.513 19.539C198.513 19.0103 198.322 18.6247 197.941 18.382C197.56 18.1393 197.009 18.018 196.29 18.018H193.183V16.965H195.965C196.624 16.965 197.135 16.8437 197.499 16.601C197.863 16.3583 198.045 15.9943 198.045 15.509C198.045 15.0237 197.863 14.6597 197.499 14.417C197.135 14.1743 196.624 14.053 195.965 14.053H193.3V21.047Z" fill="white"/>
<path d="M204.725 22.178C203.988 22.178 203.338 22.0263 202.775 21.723C202.22 21.4197 201.787 21.0037 201.475 20.475C201.172 19.9463 201.02 19.3397 201.02 18.655C201.02 17.9703 201.167 17.3637 201.462 16.835C201.765 16.3063 202.177 15.8947 202.697 15.6C203.226 15.2967 203.819 15.145 204.478 15.145C205.145 15.145 205.735 15.2923 206.246 15.587C206.757 15.8817 207.156 16.2977 207.442 16.835C207.737 17.3637 207.884 17.9833 207.884 18.694C207.884 18.746 207.88 18.8067 207.871 18.876C207.871 18.9453 207.867 19.0103 207.858 19.071H201.995V18.174H207.208L206.701 18.486C206.71 18.044 206.619 17.6497 206.428 17.303C206.237 16.9563 205.973 16.6877 205.635 16.497C205.306 16.2977 204.92 16.198 204.478 16.198C204.045 16.198 203.659 16.2977 203.321 16.497C202.983 16.6877 202.719 16.9607 202.528 17.316C202.337 17.6627 202.242 18.0613 202.242 18.512V18.72C202.242 19.1793 202.346 19.591 202.554 19.955C202.771 20.3103 203.07 20.5877 203.451 20.787C203.832 20.9863 204.27 21.086 204.764 21.086C205.171 21.086 205.54 21.0167 205.869 20.878C206.207 20.7393 206.502 20.5313 206.753 20.254L207.442 21.06C207.13 21.424 206.74 21.7013 206.272 21.892C205.813 22.0827 205.297 22.178 204.725 22.178Z" fill="white"/>
<path d="M211.983 22.178C211.289 22.178 210.752 21.9917 210.371 21.619C209.989 21.2463 209.799 20.7133 209.799 20.02V13.702H211.047V19.968C211.047 20.3407 211.138 20.6267 211.32 20.826C211.51 21.0253 211.779 21.125 212.126 21.125C212.516 21.125 212.841 21.0167 213.101 20.8L213.491 21.697C213.3 21.8617 213.07 21.983 212.802 22.061C212.542 22.139 212.269 22.178 211.983 22.178ZM208.629 16.237V15.21H213.023V16.237H208.629Z" fill="white"/>
<path d="M219.277 22.1V20.644L219.212 20.371V17.888C219.212 17.3593 219.056 16.952 218.744 16.666C218.44 16.3713 217.981 16.224 217.366 16.224C216.958 16.224 216.56 16.2933 216.17 16.432C215.78 16.562 215.45 16.7397 215.182 16.965L214.662 16.029C215.017 15.743 215.442 15.5263 215.936 15.379C216.438 15.223 216.963 15.145 217.509 15.145C218.453 15.145 219.181 15.3747 219.693 15.834C220.204 16.2933 220.46 16.9953 220.46 17.94V22.1H219.277ZM217.015 22.178C216.503 22.178 216.053 22.0913 215.663 21.918C215.281 21.7447 214.987 21.5063 214.779 21.203C214.571 20.891 214.467 20.54 214.467 20.15C214.467 19.7773 214.553 19.4393 214.727 19.136C214.909 18.8327 215.199 18.59 215.598 18.408C216.005 18.226 216.551 18.135 217.236 18.135H219.42V19.032H217.288C216.664 19.032 216.243 19.136 216.027 19.344C215.81 19.552 215.702 19.8033 215.702 20.098C215.702 20.436 215.836 20.709 216.105 20.917C216.373 21.1163 216.746 21.216 217.223 21.216C217.691 21.216 218.098 21.112 218.445 20.904C218.8 20.696 219.056 20.3927 219.212 19.994L219.459 20.852C219.294 21.2593 219.004 21.5843 218.588 21.827C218.172 22.061 217.647 22.178 217.015 22.178Z" fill="white"/>
<g clip-path="url(#clip0_1147_1796)">
<path d="M46.5115 8.84082L43.2304 13.4747H30.6316V16.3378H43.2304V20.6771H30.6316V23.8057H46.5115V28.5283H24.7285V8.84082H46.5115Z" fill="white"/>
<path d="M93.9541 8.84082L90.673 13.4747H79.1366V17.194H90.673V21.7098H79.1366V28.5283H73.1445V8.84082H93.9537H93.9541Z" fill="white"/>
<path d="M102.146 8.84082V23.5104H116.137L112.856 28.5278H95.8594V8.84082H102.146Z" fill="white"/>
<path d="M139.825 8.84082L136.544 13.4747H123.946V16.3378H136.544V20.6771H123.946V23.8057H139.825V28.5283H118.042V8.84082H139.825Z" fill="white"/>
<path d="M150.705 8.8409L156.755 15.7476L171.705 0H180L161.714 18.5813L171.631 28.5283H163.219L156.754 21.4444L150.35 28.5283H141.731L151.796 18.5813L142.498 8.84132H150.704L150.705 8.8409Z" fill="white"/>
<path d="M22.8228 16.0424C22.8228 12.0651 19.5984 8.84076 15.6211 8.84076H13.4891L0 8.8374V28.5278H5.9921V23.4213H15.6216C19.5988 23.4213 22.8232 20.1969 22.8232 16.2197V16.0424H22.8228ZM16.8319 18.7878H5.9921V13.4746H16.8323V18.7878H16.8319Z" fill="white"/>
<path d="M64.0376 8.84076H61.9056L48.4165 8.8374V28.5278H54.4086V23.4213H61.288L64.7245 28.5278H71.2397L67.2435 22.6697C69.6122 21.4904 71.2397 19.0454 71.2397 16.2197V16.0424C71.2397 12.0651 68.0153 8.84076 64.0381 8.84076H64.0376ZM54.4086 13.4746H65.2488V18.7878H54.4086V13.4746Z" fill="white"/>
</g>
<defs>
<linearGradient id="paint0_linear_1147_1796" x1="184" y1="7" x2="219.335" y2="39.1934" gradientUnits="userSpaceOnUse">
<stop stop-color="#C23D6E"/>
<stop offset="0.333333" stop-color="#AC40D2"/>
<stop offset="0.666667" stop-color="#8638DF"/>
<stop offset="1" stop-color="#7600FF"/>
</linearGradient>
<clipPath id="clip0_1147_1796">
<rect width="180" height="28.5279" fill="white"/>
</clipPath>
</defs>
</svg>
