<svg width="216" height="28" viewBox="0 0 216 28" fill="none" xmlns="http://www.w3.org/2000/svg">
<rect x="166.5" y="3.5" width="47" height="21" rx="10.5" fill="#9F03FF" fill-opacity="0.24"/>
<rect x="166.5" y="3.5" width="47" height="21" rx="10.5" stroke="url(#paint0_linear_1151_1939)"/>
<path d="M174 18.915V9H178.71C179.92 9 180.85 9.23135 181.5 9.69405C182.15 10.1473 182.475 10.7705 182.475 11.5637C182.475 12.102 182.345 12.5552 182.085 12.9235C181.835 13.2918 181.495 13.5751 181.065 13.7734C180.635 13.9717 180.17 14.0708 179.67 14.0708L179.94 13.6459C180.54 13.6459 181.07 13.745 181.53 13.9433C181.99 14.1416 182.355 14.4344 182.625 14.8215C182.895 15.1992 183.03 15.6714 183.03 16.238C183.03 17.0878 182.69 17.7488 182.01 18.221C181.34 18.6837 180.34 18.915 179.01 18.915H174ZM175.5 17.7677H178.95C179.78 17.7677 180.415 17.6355 180.855 17.3711C181.295 17.1067 181.515 16.6912 181.515 16.1246C181.515 15.5486 181.295 15.1284 180.855 14.864C180.415 14.5996 179.78 14.4674 178.95 14.4674H175.365V13.3201H178.575C179.335 13.3201 179.925 13.1879 180.345 12.9235C180.765 12.6591 180.975 12.2625 180.975 11.7337C180.975 11.2049 180.765 10.8083 180.345 10.5439C179.925 10.2795 179.335 10.1473 178.575 10.1473H175.5V17.7677Z" fill="white"/>
<path d="M188.682 19C187.832 19 187.082 18.8347 186.432 18.5042C185.792 18.1737 185.292 17.7205 184.932 17.1445C184.582 16.5685 184.407 15.9075 184.407 15.1615C184.407 14.4155 184.577 13.7545 184.917 13.1785C185.267 12.6025 185.742 12.1539 186.342 11.8329C186.952 11.5024 187.637 11.3371 188.397 11.3371C189.167 11.3371 189.847 11.4976 190.437 11.8187C191.027 12.1398 191.487 12.593 191.817 13.1785C192.157 13.7545 192.327 14.4297 192.327 15.204C192.327 15.2606 192.322 15.3267 192.312 15.4023C192.312 15.4778 192.307 15.5486 192.297 15.6147H185.532V14.6374H191.547L190.962 14.9773C190.972 14.4958 190.867 14.0661 190.647 13.6884C190.427 13.3107 190.122 13.0179 189.732 12.8102C189.352 12.593 188.907 12.4844 188.397 12.4844C187.897 12.4844 187.452 12.593 187.062 12.8102C186.672 13.0179 186.367 13.3154 186.147 13.7025C185.927 14.0803 185.817 14.5146 185.817 15.0057V15.2323C185.817 15.7328 185.937 16.1813 186.177 16.5779C186.427 16.9651 186.772 17.2672 187.212 17.4844C187.652 17.7016 188.157 17.8102 188.727 17.8102C189.197 17.8102 189.622 17.7347 190.002 17.5836C190.392 17.4325 190.732 17.2059 191.022 16.9037L191.817 17.7819C191.457 18.1785 191.007 18.4806 190.467 18.6884C189.937 18.8961 189.342 19 188.682 19Z" fill="white"/>
<path d="M197.057 19C196.257 19 195.637 18.797 195.197 18.3909C194.757 17.9849 194.537 17.4042 194.537 16.6487V9.76487H195.977V16.5921C195.977 16.9981 196.082 17.3097 196.292 17.5269C196.512 17.7441 196.822 17.8527 197.222 17.8527C197.672 17.8527 198.047 17.7347 198.347 17.4986L198.797 18.4759C198.577 18.6553 198.312 18.7875 198.002 18.8725C197.702 18.9575 197.387 19 197.057 19ZM193.187 12.5269V11.4079H198.257V12.5269H193.187Z" fill="white"/>
<path d="M205.473 18.915V17.3286L205.398 17.0312V14.3258C205.398 13.7498 205.218 13.3059 204.858 12.9943C204.508 12.6733 203.978 12.5127 203.268 12.5127C202.798 12.5127 202.338 12.5883 201.888 12.7394C201.438 12.881 201.058 13.0746 200.748 13.3201L200.148 12.3003C200.558 11.9887 201.048 11.7526 201.618 11.5921C202.198 11.4221 202.803 11.3371 203.433 11.3371C204.523 11.3371 205.363 11.5873 205.953 12.0878C206.543 12.5883 206.838 13.3532 206.838 14.3824V18.915H205.473ZM202.863 19C202.273 19 201.753 18.9056 201.303 18.7167C200.863 18.5279 200.523 18.2682 200.283 17.9377C200.043 17.5977 199.923 17.2153 199.923 16.7904C199.923 16.3843 200.023 16.0161 200.223 15.6856C200.433 15.3551 200.768 15.0907 201.228 14.8924C201.698 14.6941 202.328 14.5949 203.118 14.5949H205.638V15.5722H203.178C202.458 15.5722 201.973 15.6856 201.723 15.9122C201.473 16.1388 201.348 16.4127 201.348 16.7337C201.348 17.102 201.503 17.3994 201.813 17.6261C202.123 17.8432 202.553 17.9518 203.103 17.9518C203.643 17.9518 204.113 17.8385 204.513 17.6119C204.923 17.3853 205.218 17.0548 205.398 16.6204L205.683 17.5552C205.493 17.9991 205.158 18.3532 204.678 18.6176C204.198 18.8725 203.593 19 202.863 19Z" fill="white"/>
<g clip-path="url(#clip0_1151_1939)">
<path d="M43.3434 7.8584L40.4268 11.9774H29.2279V14.5224H40.4268V18.3796H29.2279V21.1606H43.3434V25.3583H23.9807V7.8584H43.3434Z" fill="white"/>
<path d="M85.5147 7.8584L82.5982 11.9774H72.3436V15.2834H82.5982V19.2975H72.3436V25.3583H67.0173V7.8584H85.5143H85.5147Z" fill="white"/>
<path d="M92.7967 7.8584V20.898H105.233L102.316 25.358H87.2083V7.8584H92.7967Z" fill="white"/>
<path d="M126.289 7.8584L123.373 11.9774H112.174V14.5224H123.373V18.3796H112.174V21.1606H126.289V25.3583H106.927V7.8584H126.289Z" fill="white"/>
<path d="M135.959 7.85858L141.337 13.9979L154.627 0H162L145.745 16.5167L154.561 25.3585H147.083L141.337 19.0616L135.644 25.3585H127.983L136.93 16.5167L128.665 7.85895H135.959L135.959 7.85858Z" fill="white"/>
<path d="M22.2869 14.2599C22.2869 10.7246 19.4208 7.85846 15.8855 7.85846H13.9903L2 7.85547V25.358H7.32631V20.8189H15.8858C19.4211 20.8189 22.2873 17.9528 22.2873 14.4175V14.2599H22.2869ZM16.9617 16.7003H7.32631V11.9775H16.9621V16.7003H16.9617Z" fill="white"/>
<path d="M58.9223 7.85846H57.0271L45.0369 7.85547V25.358H50.3632V20.8189H56.4782L59.5329 25.358H65.3241L61.772 20.1508C63.8774 19.1026 65.3241 16.9292 65.3241 14.4175V14.2599C65.3241 10.7246 62.458 7.85846 58.9227 7.85846H58.9223ZM50.3632 11.9775H59.9989V16.7003H50.3632V11.9775Z" fill="white"/>
</g>
<defs>
<linearGradient id="paint0_linear_1151_1939" x1="166" y1="3" x2="201.202" y2="37.9065" gradientUnits="userSpaceOnUse">
<stop stop-color="#C23D6E"/>
<stop offset="0.333333" stop-color="#AC40D2"/>
<stop offset="0.666667" stop-color="#8638DF"/>
<stop offset="1" stop-color="#7600FF"/>
</linearGradient>
<clipPath id="clip0_1151_1939">
<rect width="160" height="25.3581" fill="white" transform="translate(2)"/>
</clipPath>
</defs>
</svg>
