<svg width="48" height="48" viewBox="0 0 48 48" fill="none" xmlns="http://www.w3.org/2000/svg">
<rect width="48" height="48" rx="6" fill="#08020C"/>
<g clip-path="url(#clip0_1118_1364)">
<path d="M14.3358 22.9648L13.6066 23.9946H10.8069V24.6308H13.6066V25.5951H10.8069V26.2904H14.3358V27.3398H9.49512V22.9648H14.3358Z" fill="white"/>
<path d="M24.8787 22.9648L24.1496 23.9946H21.586V24.8211H24.1496V25.8246H21.586V27.3398H20.2544V22.9648H24.8786H24.8787Z" fill="white"/>
<path d="M26.6994 22.9648V26.2247H29.8084L29.0793 27.3397H25.3022V22.9648H26.6994Z" fill="white"/>
<path d="M35.0726 22.9648L34.3435 23.9946H31.5437V24.6308H34.3435V25.5951H31.5437V26.2904H35.0726V27.3398H30.2319V22.9648H35.0726Z" fill="white"/>
<path d="M37.4898 22.9646L38.8342 24.4995L42.1566 21H43.9999L39.9362 25.1292L42.1401 27.3396H40.2707L38.8341 25.7654L37.4109 27.3396H35.4956L37.7323 25.1292L35.6662 22.9647H37.4897L37.4898 22.9646Z" fill="white"/>
<path d="M9.07172 24.565C9.07172 23.6811 8.35519 22.9646 7.47136 22.9646H6.99757L4 22.9639V27.3395H5.33158V26.2047H7.47146C8.35529 26.2047 9.07182 25.4882 9.07182 24.6044V24.565H9.07172ZM7.74042 25.1751H5.33158V23.9944H7.74052V25.1751H7.74042Z" fill="white"/>
<path d="M18.2306 22.9646H17.7568L14.7593 22.9639V27.3395H16.0909V26.2047H17.6196L18.3833 27.3395H19.8311L18.9431 26.0377C19.4694 25.7757 19.8311 25.2323 19.8311 24.6044V24.565C19.8311 23.6811 19.1146 22.9646 18.2307 22.9646H18.2306ZM16.0909 23.9944H18.4998V25.1751H16.0909V23.9944Z" fill="white"/>
</g>
<defs>
<clipPath id="clip0_1118_1364">
<rect width="40" height="6.33954" fill="white" transform="translate(4 21)"/>
</clipPath>
</defs>
</svg>
