<svg width="192" height="192" viewBox="0 0 192 192" fill="none" xmlns="http://www.w3.org/2000/svg">
<rect width="192" height="192" fill="#08020C"/>
<g clip-path="url(#clip0_1135_1502)">
<path d="M54.9273 91.3496L51.8285 95.726H39.9296V98.4301H51.8285V102.528H39.9296V105.483H54.9273V109.943H34.3545V91.3496H54.9273Z" fill="white"/>
<path d="M99.7345 91.3496L96.6357 95.726H85.7403V99.2387H96.6357V103.504H85.7403V109.943H80.0811V91.3496H99.7341H99.7345Z" fill="white"/>
<path d="M107.471 91.3496V105.204H120.685L117.586 109.943H101.534V91.3496H107.471Z" fill="white"/>
<path d="M143.058 91.3496L139.959 95.726H128.06V98.4301H139.959V102.528H128.06V105.483H143.058V109.943H122.485V91.3496H143.058Z" fill="white"/>
<path d="M153.332 91.3497L159.046 97.8727L173.166 83H181L163.73 100.549L173.096 109.943H165.151L159.046 103.253L152.997 109.943H144.857L154.363 100.549L145.582 91.3501H153.332L153.332 91.3497Z" fill="white"/>
<path d="M32.5548 98.1514C32.5548 94.3951 29.5096 91.3499 25.7533 91.3499H23.7397L11 91.3467V109.943H16.6592V105.12H25.7537C29.51 105.12 32.5552 102.075 32.5552 98.3188V98.1514H32.5548ZM26.8968 100.744H16.6592V95.7263H26.8972V100.744H26.8968Z" fill="white"/>
<path d="M71.4799 91.3499H69.4662L56.7266 91.3467V109.943H62.3858V105.12H68.883L72.1286 109.943H78.2818L74.5077 104.411C76.7447 103.297 78.2818 100.988 78.2818 98.3188V98.1514C78.2818 94.3951 75.2365 91.3499 71.4803 91.3499H71.4799ZM62.3858 95.7263H72.6238V100.744H62.3858V95.7263Z" fill="white"/>
</g>
<defs>
<clipPath id="clip0_1135_1502">
<rect width="170" height="26.943" fill="white" transform="translate(11 83)"/>
</clipPath>
</defs>
</svg>
