<?xml version="1.0" encoding="UTF-8"?>
<svg id="_레이어_2" data-name="레이어_2" xmlns="http://www.w3.org/2000/svg" viewBox="0 0 4284.54 679.05">
  <defs>
    <style>
      .cls-1 {
        fill: #fff;
      }
    </style>
  </defs>
  <g id="Layer_1">
    <g id="logo">
      <path class="cls-1" d="M1107.11,210.44l-78.1,110.3h-299.89v68.15h299.89v103.29h-299.89v74.47h377.99v112.41h-518.5V210.44h518.5Z"/>
      <path class="cls-1" d="M2236.39,210.44l-78.1,110.3h-274.6v88.53h274.6v107.49h-274.6v162.3h-142.63V210.44h495.32Z"/>
      <path class="cls-1" d="M2431.39,210.44v349.18h333.02l-78.1,119.43h-404.57V210.44h149.65Z"/>
      <path class="cls-1" d="M3328.27,210.44l-78.1,110.3h-299.89v68.15h299.89v103.29h-299.89v74.47h377.99v112.41h-518.5V210.44h518.5Z"/>
      <path class="cls-1" d="M3587.22,210.44l144.01,164.4L4087.1,0h197.44l-435.27,442.29,236.06,236.77h-200.23l-153.88-168.62-152.45,168.62h-205.15l239.58-236.77-221.31-231.84h195.32Z"/>
      <path class="cls-1" d="M543.25,381.86c0-94.67-76.75-171.42-171.42-171.42h-50.75l-321.08-.08v468.69h142.63v-121.55h229.21c94.67,0,171.42-76.75,171.42-171.42h0v-4.22ZM400.65,447.21H142.63v-126.47h258.03v126.47Z"/>
      <path class="cls-1" d="M1524.29,210.44h-50.75l-321.08-.08v468.69h142.63v-121.55h163.75l81.8,121.55h155.08l-95.12-139.44c56.38-28.07,95.12-86.27,95.12-153.53h0v-4.22c0-94.67-76.75-171.42-171.42-171.42ZM1295.09,320.74h258.03v126.47h-258.03v-126.47Z"/>
    </g>
  </g>
</svg>