<svg width="144" height="144" viewBox="0 0 144 144" fill="none" xmlns="http://www.w3.org/2000/svg">
<rect width="144" height="144" fill="#08020C"/>
<g clip-path="url(#clip0_1134_1491)">
<path d="M43.0078 67.894L40.8204 70.9833H32.4212V72.892H40.8204V75.7849H32.4212V77.8707H43.0078V81.019H28.4858V67.894H43.0078Z" fill="white"/>
<path d="M74.6362 67.894L72.4488 70.9833H64.7579V73.4628H72.4488V76.4734H64.7579V81.019H60.7632V67.894H74.6359H74.6362Z" fill="white"/>
<path d="M80.0976 67.894V77.6738H89.4247L87.2373 81.0187H75.9062V67.894H80.0976Z" fill="white"/>
<path d="M105.217 67.894L103.03 70.9833H94.6307V72.892H103.03V75.7849H94.6307V77.8707H105.217V81.019H90.6953V67.894H105.217Z" fill="white"/>
<path d="M112.47 67.8939L116.503 72.4984L126.47 62H132L119.809 74.3875L126.421 81.0189H120.813L116.503 76.2962L112.233 81.0189H106.487L113.197 74.3875L106.999 67.8942H112.469L112.47 67.8939Z" fill="white"/>
<path d="M27.2152 72.6949C27.2152 70.0434 25.0656 67.8938 22.4141 67.8938H20.9927L12 67.8916V81.0185H15.9947V77.6142H22.4144C25.0659 77.6142 27.2155 75.4646 27.2155 72.8131V72.6949H27.2152ZM23.2213 74.5252H15.9947V70.9831H23.2216V74.5252H23.2213Z" fill="white"/>
<path d="M54.6919 67.8938H53.2705L44.2778 67.8916V81.0185H48.2726V77.6142H52.8588L55.1499 81.0185H59.4933L56.8292 77.1131C58.4083 76.327 59.4933 74.6969 59.4933 72.8131V72.6949C59.4933 70.0434 57.3437 67.8938 54.6922 67.8938H54.6919ZM48.2726 70.9831H55.4994V74.5252H48.2726V70.9831Z" fill="white"/>
</g>
<defs>
<clipPath id="clip0_1134_1491">
<rect width="120" height="19.0186" fill="white" transform="translate(12 62)"/>
</clipPath>
</defs>
</svg>
