<svg width="50" height="50" viewBox="0 0 50 50" fill="none" xmlns="http://www.w3.org/2000/svg">
<g clip-path="url(#clip0_749_10828)">
<g filter="url(#filter0_d_749_10828)">
<path fill-rule="evenodd" clip-rule="evenodd" d="M19.8813 14.334C19.1762 14.3342 18.4838 14.5208 17.8741 14.8748C17.2643 15.2289 16.759 15.7378 16.4093 16.35L13.752 21.0007H12.2013C12.0599 21.0007 11.9242 21.0568 11.8242 21.1569C11.7242 21.2569 11.668 21.3925 11.668 21.534V22.1673C11.6677 22.4054 11.7471 22.6367 11.8935 22.8245C12.04 23.0122 12.245 23.1456 12.476 23.2033L12.508 23.21C11.9512 24.3655 11.7396 25.6572 11.8986 26.93L12.8653 34.6646C12.9459 35.3097 13.2594 35.9031 13.7468 36.3333C14.2342 36.7635 14.8619 37.0008 15.512 37.0006H15.668C16.3752 37.0006 17.0535 36.7197 17.5536 36.2196C18.0537 35.7195 18.3346 35.0412 18.3346 34.334H31.668C31.668 35.0412 31.9489 35.7195 32.449 36.2196C32.9491 36.7197 33.6274 37.0006 34.3346 37.0006H34.4906C35.1407 37.0008 35.7685 36.7635 36.2558 36.3333C36.7432 35.9031 37.0567 35.3097 37.1373 34.6646L38.104 26.9313C38.263 25.6585 38.0514 24.3669 37.4946 23.2113L37.5266 23.2033C37.7576 23.1456 37.9626 23.0122 38.1091 22.8245C38.2555 22.6367 38.3349 22.4054 38.3346 22.1673V21.534C38.3346 21.3925 38.2784 21.2569 38.1784 21.1569C38.0784 21.0568 37.9428 21.0007 37.8013 21.0007H36.2506L33.5933 16.35C33.2436 15.7378 32.7383 15.2289 32.1286 14.8748C31.5188 14.5208 30.8264 14.3342 30.1213 14.334H19.8813ZM33.564 21.6727L31.2786 17.6727C31.162 17.4684 30.9933 17.2986 30.7898 17.1806C30.5863 17.0626 30.3552 17.0005 30.12 17.0007H19.8826C19.6474 17.0005 19.4163 17.0626 19.2128 17.1806C19.0093 17.2986 18.8407 17.4684 18.724 17.6727L16.4386 21.6727C16.3228 21.8754 16.2623 22.105 16.2631 22.3385C16.2639 22.572 16.326 22.8012 16.4431 23.0031C16.5603 23.2051 16.7285 23.3727 16.9308 23.4893C17.1331 23.6059 17.3625 23.6672 17.596 23.6673H32.4066C32.6401 23.6672 32.8695 23.6059 33.0718 23.4893C33.2741 23.3727 33.4423 23.2051 33.5595 23.0031C33.6767 22.8012 33.7387 22.572 33.7395 22.3385C33.7403 22.105 33.6798 21.8754 33.564 21.6727ZM15.668 29.0526V28.1193C15.6679 28.0038 15.6979 27.8903 15.7549 27.7898C15.8119 27.6894 15.894 27.6055 15.9932 27.5463C16.0924 27.4872 16.2053 27.4548 16.3208 27.4524C16.4363 27.45 16.5504 27.4777 16.652 27.5327L20.308 29.506C20.8053 29.7753 20.5986 30.5313 20.0333 30.5087L16.948 30.3847C16.6041 30.3709 16.2789 30.2247 16.0404 29.9767C15.8018 29.7287 15.6684 29.3981 15.668 29.054V29.0526ZM34.3346 28.1193V29.0526C34.3349 29.3972 34.2018 29.7285 33.9632 29.9771C33.7245 30.2257 33.3989 30.3722 33.0546 30.386L29.9693 30.5087C29.404 30.5313 29.196 29.7753 29.6946 29.506L33.3506 27.5327C33.4522 27.4777 33.5663 27.45 33.6818 27.4524C33.7973 27.4548 33.9102 27.4872 34.0094 27.5463C34.1086 27.6055 34.1907 27.6894 34.2477 27.7898C34.3048 27.8903 34.3347 28.0038 34.3346 28.1193Z" fill="#E680FF"/>
</g>
</g>
<defs>
<filter id="filter0_d_749_10828" x="-0.332031" y="10.334" width="50.666" height="46.667" filterUnits="userSpaceOnUse" color-interpolation-filters="sRGB">
<feFlood flood-opacity="0" result="BackgroundImageFix"/>
<feColorMatrix in="SourceAlpha" type="matrix" values="0 0 0 0 0 0 0 0 0 0 0 0 0 0 0 0 0 0 127 0" result="hardAlpha"/>
<feOffset dy="8"/>
<feGaussianBlur stdDeviation="6"/>
<feComposite in2="hardAlpha" operator="out"/>
<feColorMatrix type="matrix" values="0 0 0 0 0.0698955 0 0 0 0 0.0323738 0 0 0 0 0.0813151 0 0 0 0.4 0"/>
<feBlend mode="normal" in2="BackgroundImageFix" result="effect1_dropShadow_749_10828"/>
<feBlend mode="normal" in="SourceGraphic" in2="effect1_dropShadow_749_10828" result="shape"/>
</filter>
<clipPath id="clip0_749_10828">
<rect width="50" height="50" fill="white"/>
</clipPath>
</defs>
</svg>
