<svg width="15" height="15" viewBox="0 0 15 15" fill="none" xmlns="http://www.w3.org/2000/svg">
<path fill-rule="evenodd" clip-rule="evenodd" d="M13.4749 3.27515C13.6504 3.45093 13.749 3.68921 13.749 3.93765C13.749 4.18609 13.6504 4.42437 13.4749 4.60015L5.85361 12.2214C5.76563 12.3093 5.66104 12.3788 5.54593 12.4259C5.43082 12.473 5.30749 12.4967 5.18313 12.4956C5.05877 12.4946 4.93586 12.4688 4.82156 12.4198C4.70726 12.3708 4.60385 12.2995 4.51736 12.2102L1.51361 9.10515C1.34231 8.92616 1.24883 8.68664 1.25359 8.43893C1.25836 8.19122 1.36098 7.95547 1.53903 7.78319C1.71709 7.61092 1.9561 7.51613 2.20383 7.51954C2.45156 7.52295 2.68787 7.62429 2.86111 7.8014L5.20236 10.2214L12.1499 3.27515C12.3256 3.09959 12.5639 3.00098 12.8124 3.00098C13.0608 3.00098 13.2991 3.09959 13.4749 3.27515Z" fill="white"/>
</svg>
