<svg width="24" height="24" viewBox="0 0 24 24" fill="none" xmlns="http://www.w3.org/2000/svg">
<path fill-rule="evenodd" clip-rule="evenodd" d="M18.775 6.22926C18.9191 6.37625 19 6.5755 19 6.78324C19 6.99098 18.9191 7.19023 18.775 7.33722L14.1894 12.0094L18.775 16.6816C18.9109 16.8303 18.9849 17.0268 18.9814 17.2299C18.9778 17.433 18.8971 17.6268 18.7561 17.7704C18.6152 17.914 18.425 17.9963 18.2257 17.9999C18.0263 18.0035 17.8334 17.9281 17.6876 17.7896L12.5583 12.5634C12.4143 12.4164 12.3333 12.2172 12.3333 12.0094C12.3333 11.8017 12.4143 11.6024 12.5583 11.4555L17.6876 6.22926C17.8319 6.08246 18.0274 6 18.2313 6C18.4352 6 18.6307 6.08246 18.775 6.22926Z" fill="#5F5B67"/>
<path fill-rule="evenodd" clip-rule="evenodd" d="M11.775 6.22926C11.9191 6.37625 12 6.5755 12 6.78324C12 6.99098 11.9191 7.19023 11.775 7.33722L7.18944 12.0094L11.775 16.6816C11.9109 16.8303 11.9849 17.0268 11.9814 17.2299C11.9778 17.433 11.8971 17.6268 11.7561 17.7704C11.6152 17.914 11.425 17.9963 11.2257 17.9999C11.0263 18.0035 10.8334 17.9281 10.6876 17.7896L5.55834 12.5634C5.41426 12.4164 5.33333 12.2172 5.33333 12.0094C5.33333 11.8017 5.41426 11.6024 5.55834 11.4555L10.6876 6.22926C10.8319 6.08246 11.0274 6 11.2313 6C11.4352 6 11.6307 6.08246 11.775 6.22926Z" fill="#5F5B67"/>
</svg>
