<svg width="24" height="24" viewBox="0 0 24 24" fill="none" xmlns="http://www.w3.org/2000/svg">
<path fill-rule="evenodd" clip-rule="evenodd" d="M12.7751 8.82478C12.7193 8.76904 12.6749 8.70283 12.6447 8.62994C12.6144 8.55704 12.5989 8.4789 12.5989 8.39998C12.5989 8.32106 12.6144 8.24291 12.6447 8.17002C12.6749 8.09712 12.7193 8.03091 12.7751 7.97518L16.3751 4.37518C16.4309 4.31939 16.4972 4.27514 16.57 4.24495C16.6429 4.21476 16.7211 4.19922 16.7999 4.19922C16.8788 4.19922 16.957 4.21476 17.0299 4.24495C17.1027 4.27514 17.169 4.31939 17.2247 4.37518C17.2805 4.43096 17.3248 4.49719 17.355 4.57008C17.3852 4.64296 17.4007 4.72108 17.4007 4.79998C17.4007 4.87887 17.3852 4.95699 17.355 5.02988C17.3248 5.10276 17.2805 5.16899 17.2247 5.22478L13.6247 8.82478C13.569 8.88065 13.5028 8.92498 13.4299 8.95523C13.357 8.98548 13.2789 9.00105 13.1999 9.00105C13.121 9.00105 13.0429 8.98548 12.97 8.95523C12.8971 8.92498 12.8309 8.88065 12.7751 8.82478Z" fill="white"/>
<path fill-rule="evenodd" clip-rule="evenodd" d="M20.8248 8.82478C20.769 8.88065 20.7028 8.92498 20.6299 8.95523C20.557 8.98548 20.4789 9.00105 20.4 9.00105C20.3211 9.00105 20.2429 8.98548 20.17 8.95523C20.0971 8.92498 20.0309 8.88065 19.9752 8.82478L16.3752 5.22478C16.2625 5.11211 16.1992 4.95931 16.1992 4.79998C16.1992 4.64065 16.2625 4.48784 16.3752 4.37518C16.4878 4.26251 16.6406 4.19922 16.8 4.19922C16.9593 4.19922 17.1121 4.26251 17.2248 4.37518L20.8248 7.97518C20.8807 8.03091 20.925 8.09712 20.9552 8.17002C20.9855 8.24291 21.001 8.32106 21.001 8.39998C21.001 8.4789 20.9855 8.55704 20.9552 8.62994C20.925 8.70283 20.8807 8.76904 20.8248 8.82478Z" fill="white"/>
<path fill-rule="evenodd" clip-rule="evenodd" d="M16.8 4.7998C16.9591 4.7998 17.1117 4.86302 17.2243 4.97554C17.3368 5.08806 17.4 5.24067 17.4 5.3998V16.7998C17.4 16.9589 17.3368 17.1115 17.2243 17.2241C17.1117 17.3366 16.9591 17.3998 16.8 17.3998C16.6409 17.3998 16.4883 17.3366 16.3757 17.2241C16.2632 17.1115 16.2 16.9589 16.2 16.7998V5.3998C16.2 5.24067 16.2632 5.08806 16.3757 4.97554C16.4883 4.86302 16.6409 4.7998 16.8 4.7998ZM11.2248 15.175C11.2807 15.2307 11.325 15.297 11.3553 15.3698C11.3855 15.4427 11.4011 15.5209 11.4011 15.5998C11.4011 15.6787 11.3855 15.7569 11.3553 15.8298C11.325 15.9027 11.2807 15.9689 11.2248 16.0246L7.6248 19.6246C7.51214 19.7373 7.35933 19.8006 7.2 19.8006C7.04067 19.8006 6.88787 19.7373 6.7752 19.6246C6.66254 19.5119 6.59924 19.3591 6.59924 19.1998C6.59924 19.0405 6.66254 18.8877 6.7752 18.775L10.3752 15.175C10.4309 15.1191 10.4971 15.0748 10.57 15.0445C10.6429 15.0143 10.7211 14.9987 10.8 14.9987C10.8789 14.9987 10.9571 15.0143 11.03 15.0445C11.1029 15.0748 11.1691 15.1191 11.2248 15.175Z" fill="white"/>
<path fill-rule="evenodd" clip-rule="evenodd" d="M3.17517 15.1753C3.23091 15.1194 3.29712 15.0751 3.37001 15.0448C3.44291 15.0146 3.52105 14.999 3.59997 14.999C3.67889 14.999 3.75704 15.0146 3.82993 15.0448C3.90283 15.0751 3.96904 15.1194 4.02477 15.1753L7.62477 18.7753C7.68056 18.8311 7.72481 18.8973 7.755 18.9702C7.78519 19.0431 7.80073 19.1212 7.80073 19.2001C7.80073 19.279 7.78519 19.3571 7.755 19.43C7.72481 19.5029 7.68056 19.5691 7.62477 19.6249C7.56899 19.6807 7.50276 19.7249 7.42987 19.7551C7.35699 19.7853 7.27887 19.8009 7.19997 19.8009C7.12108 19.8009 7.04296 19.7853 6.97007 19.7551C6.89719 19.7249 6.83096 19.6807 6.77517 19.6249L3.17517 16.0249C3.1193 15.9692 3.07497 15.9029 3.04472 15.8301C3.01447 15.7572 2.9989 15.679 2.9989 15.6001C2.9989 15.5212 3.01447 15.443 3.04472 15.3701C3.07497 15.2972 3.1193 15.231 3.17517 15.1753Z" fill="white"/>
<path fill-rule="evenodd" clip-rule="evenodd" d="M7.19998 19.1996C7.04085 19.1996 6.88823 19.1364 6.77571 19.0239C6.66319 18.9114 6.59998 18.7587 6.59998 18.5996V7.19961C6.59998 7.04048 6.66319 6.88787 6.77571 6.77535C6.88823 6.66282 7.04085 6.59961 7.19998 6.59961C7.35911 6.59961 7.51172 6.66282 7.62424 6.77535C7.73676 6.88787 7.79998 7.04048 7.79998 7.19961V18.5996C7.79998 18.7587 7.73676 18.9114 7.62424 19.0239C7.51172 19.1364 7.35911 19.1996 7.19998 19.1996Z" fill="white"/>
</svg>
