<svg width="60" height="60" viewBox="0 0 60 60" fill="none" xmlns="http://www.w3.org/2000/svg">
<path d="M24.9999 35L29.9999 30M29.9999 30L34.9999 25M29.9999 30L24.9999 25M29.9999 30L34.9999 35M29.9999 52.5C26.06 52.5064 22.188 51.4733 18.7749 49.505L18.7649 49.4975C18.4449 49.315 18.2849 49.2225 18.1324 49.18C17.9969 49.1412 17.8555 49.1268 17.7149 49.1375C17.5549 49.1475 17.3899 49.2025 17.0599 49.3125L11.2949 51.235L11.2799 51.24C10.0674 51.645 9.46242 51.845 9.05742 51.7025C8.88237 51.64 8.72338 51.5394 8.59194 51.408C8.46051 51.2766 8.35991 51.1176 8.29742 50.9425C8.15492 50.5375 8.35742 49.93 8.76242 48.7125V48.705L10.6874 42.94C10.7974 42.61 10.8499 42.445 10.8624 42.2875C10.8723 42.1461 10.8579 42.0041 10.8199 41.8675C10.7386 41.646 10.6321 41.4346 10.5024 41.2375L10.4949 41.225C8.02464 36.9337 7.03894 31.9473 7.69062 27.0388C8.3423 22.1303 10.595 17.5738 14.0994 14.0757C17.6039 10.5776 22.1644 8.3332 27.0741 7.69042C31.9838 7.04763 36.9684 8.04237 41.2552 10.5204C45.5421 12.9985 48.8918 16.8215 50.7851 21.3968C52.6785 25.9721 53.0096 31.0441 51.7273 35.8268C50.4451 40.6095 47.6209 44.8355 43.6927 47.85C39.7644 50.8645 34.9515 52.4989 29.9999 52.5Z" stroke="url(#paint0_linear_171_84)" stroke-width="3.33333" stroke-linecap="round" stroke-linejoin="round"/>
<defs>
<linearGradient id="paint0_linear_171_84" x1="7" y1="8" x2="52" y2="53" gradientUnits="userSpaceOnUse">
<stop stop-color="#FF5469"/>
<stop offset="1" stop-color="#FE354D"/>
</linearGradient>
</defs>
</svg>
