<svg width="24" height="24" viewBox="0 0 24 24" fill="none" xmlns="http://www.w3.org/2000/svg">
<path d="M12.7485 11.25C12.7485 11.0511 12.6695 10.8603 12.5288 10.7197C12.3882 10.579 12.1974 10.5 11.9985 10.5C11.7996 10.5 11.6088 10.579 11.4682 10.7197C11.3275 10.8603 11.2485 11.0511 11.2485 11.25V15.75C11.2485 15.9489 11.3275 16.1397 11.4682 16.2803C11.6088 16.421 11.7996 16.5 11.9985 16.5C12.1974 16.5 12.3882 16.421 12.5288 16.2803C12.6695 16.1397 12.7485 15.9489 12.7485 15.75V11.25ZM13.1235 8.25C13.1235 8.54817 13.0051 8.83413 12.7942 9.04496C12.5834 9.2558 12.2974 9.37425 11.9992 9.37425C11.7011 9.37425 11.4151 9.2558 11.2043 9.04496C10.9934 8.83413 10.875 8.54817 10.875 8.25C10.875 7.95203 10.9934 7.66626 11.2041 7.45557C11.4148 7.24487 11.7005 7.1265 11.9985 7.1265C12.2965 7.1265 12.5822 7.24487 12.7929 7.45557C13.0036 7.66626 13.1235 7.95203 13.1235 8.25ZM12 1.5C9.21523 1.5 6.54451 2.60625 4.57538 4.57538C2.60625 6.54451 1.5 9.21523 1.5 12C1.5 14.7848 2.60625 17.4555 4.57538 19.4246C6.54451 21.3938 9.21523 22.5 12 22.5C14.7848 22.5 17.4555 21.3938 19.4246 19.4246C21.3938 17.4555 22.5 14.7848 22.5 12C22.5 9.21523 21.3938 6.54451 19.4246 4.57538C17.4555 2.60625 14.7848 1.5 12 1.5ZM3 12C3 10.8181 3.23279 9.64778 3.68508 8.55585C4.13738 7.46392 4.80031 6.47177 5.63604 5.63604C6.47177 4.80031 7.46392 4.13738 8.55585 3.68508C9.64778 3.23279 10.8181 3 12 3C13.1819 3 14.3522 3.23279 15.4442 3.68508C16.5361 4.13738 17.5282 4.80031 18.364 5.63604C19.1997 6.47177 19.8626 7.46392 20.3149 8.55585C20.7672 9.64778 21 10.8181 21 12C21 14.3869 20.0518 16.6761 18.364 18.364C16.6761 20.0518 14.3869 21 12 21C9.61305 21 7.32387 20.0518 5.63604 18.364C3.94821 16.6761 3 14.3869 3 12Z" fill="#93919D"/>
</svg>
