<svg width="110" height="110" viewBox="0 0 110 110" fill="none" xmlns="http://www.w3.org/2000/svg">
<path d="M69.5822 90.3348L64.9996 74H45.4996L40.917 90.3348H69.5822Z" stroke="#F2F4F8" stroke-width="2.75" stroke-linecap="round" stroke-linejoin="round"/>
<path fill-rule="evenodd" clip-rule="evenodd" d="M68 17.625H18.5826C17.8 17.625 17.0251 17.7792 16.3021 18.0788C15.5791 18.3783 14.9222 18.8174 14.3689 19.371C13.8157 19.9245 13.3769 20.5816 13.0777 21.3047C12.7785 22.0276 12.6247 22.8024 12.625 23.5848V69.4174C12.625 70.9974 13.2527 72.5128 14.3699 73.6301C15.4872 74.7473 17.0026 75.375 18.5826 75.375H91.9174C93.4974 75.375 95.0128 74.7473 96.1301 73.6301C97.2473 72.5128 97.875 70.9974 97.875 69.4174V42.0001H95.125V69.4174C95.125 70.2681 94.7871 71.084 94.1855 71.6855C93.584 72.2871 92.7681 72.625 91.9174 72.625H18.5826C17.7319 72.625 16.916 72.2871 16.3145 71.6855C15.7129 71.084 15.375 70.2681 15.375 69.4174V23.5848L15.375 23.5841C15.3748 23.1628 15.4576 22.7455 15.6187 22.3562C15.7798 21.9668 16.0161 21.613 16.3139 21.315C16.6118 21.017 16.9655 20.7806 17.3547 20.6193C17.744 20.458 18.1612 20.375 18.5826 20.375H68V17.625ZM29.75 88.9598C28.9906 88.9598 28.375 89.5754 28.375 90.3348C28.375 91.0942 28.9906 91.7098 29.75 91.7098H55.25H80.75C81.5094 91.7098 82.125 91.0942 82.125 90.3348C82.125 89.5754 81.5094 88.9598 80.75 88.9598H55.25H29.75Z" fill="#F2F4F8"/>
<path d="M45 45.2662V45M65.5 45.2662V45M49.6125 55.25C49.6125 55.25 52.914 57.25 55.25 57.25C57.586 57.25 60.8875 55.25 60.8875 55.25" stroke="#F2F4F8" stroke-width="2.75" stroke-linecap="round"/>
<g clip-path="url(#clip0_1279_3017)">
<path d="M89.7275 11.0819L89.5688 10.6421L88.2982 7.11992C88.2982 7.11987 88.2982 7.11981 88.2981 7.11976C88.2469 6.97829 88.1062 6.875 87.9404 6.875H84.1723C84.0937 6.87525 84.0171 6.89951 83.9528 6.94454C83.8889 6.98925 83.8401 7.05231 83.8128 7.12536L82.6263 10.4352L82.4864 10.8253L82.096 10.9643C81.4952 11.1781 81.0443 11.3696 80.7278 11.5366L80.7251 11.538C80.4493 11.6824 80.133 11.8719 79.7747 12.1103L79.3867 12.3686L78.9558 12.1907L75.5395 10.7795L75.5376 10.7787C75.4689 10.7501 75.3934 10.7421 75.3202 10.7555C75.247 10.769 75.1792 10.8034 75.1252 10.8546L75.1244 10.8553L72.5973 13.2421L72.5933 13.2459L72.5933 13.2458C72.539 13.2965 72.5023 13.3631 72.4885 13.436C72.4746 13.5089 72.4844 13.5843 72.5163 13.6513L72.5174 13.6536L72.5174 13.6536L73.9826 16.7496L74.1635 17.1319L73.9763 17.5112C73.7818 17.9051 73.6044 18.3072 73.4444 18.7164C73.3381 19.0045 73.2089 19.4225 73.0568 19.9815L72.9519 20.3674L72.5914 20.5406L69.2111 22.1642L69.2094 22.165C69.1492 22.1937 69.098 22.2383 69.0613 22.294L68.3364 21.8157L69.0613 22.294C69.0248 22.3492 69.004 22.4133 69.001 22.4794C69.0009 22.4799 69.0009 22.4804 69.0009 22.4809L68.8752 25.931C68.8752 25.9313 68.8752 25.9317 68.8752 25.9321C68.8728 26.0125 68.8969 26.0915 68.9438 26.1569C68.9909 26.2226 69.0584 26.2708 69.1358 26.2942L69.1375 26.2947L72.3594 27.2757L72.7908 27.4071L72.9342 27.8347C73.0925 28.3072 73.2654 28.7747 73.4525 29.2366C73.6109 29.6078 73.7824 29.9733 73.9666 30.3323L74.1606 30.7105L73.9833 31.0968L72.5128 34.3007L72.5122 34.3019C72.4814 34.3687 72.4725 34.4436 72.4868 34.5158C72.5011 34.5879 72.5378 34.6537 72.5918 34.7038L72.5952 34.707L75.1259 37.0812L75.1261 37.0814C75.1807 37.1326 75.2491 37.1669 75.3228 37.1798C75.3966 37.1928 75.4725 37.184 75.5413 37.1545L75.5423 37.1541L78.9622 35.6925L79.3414 35.5305L79.7077 35.7198C80.0517 35.8975 80.4015 36.0635 80.7567 36.2175C81.1994 36.3968 81.6469 36.5639 82.0987 36.7187L82.4882 36.8521L82.6337 37.2372L84.0099 40.8791C84.0102 40.8798 84.0105 40.8806 84.0108 40.8813C84.0395 40.9542 84.0898 41.0166 84.155 41.0601C84.2208 41.1041 84.2986 41.1267 84.3778 41.1249L84.3783 41.1249L87.7973 41.0475C87.8744 41.0457 87.9492 41.0208 88.0119 40.9759C88.074 40.9316 88.1215 40.8698 88.1484 40.7984C88.1487 40.7977 88.149 40.7969 88.1493 40.7962L89.3169 37.5625L89.4543 37.182L89.8331 37.0402L91.1477 36.5482C91.1481 36.548 91.1485 36.5479 91.1489 36.5477C91.6133 36.3719 92.066 36.1667 92.5044 35.9335L92.9145 35.7152L93.3251 35.9327L96.3418 37.5311L96.3437 37.5322C96.4133 37.5693 96.4926 37.5841 96.5709 37.5746C96.6492 37.5652 96.7227 37.5319 96.7814 37.4794L96.782 37.4788L99.7087 34.8653L99.7123 34.8621C99.7684 34.8125 99.8071 34.7462 99.8227 34.6729C99.8382 34.5996 99.8297 34.5232 99.7985 34.4551L99.7967 34.4512L98.2578 31.0492L98.0971 30.6939L98.2538 30.3369C98.4423 29.9073 98.611 29.4694 98.7594 29.0243C98.8443 28.7574 98.9289 28.4264 99.0118 28.0269L99.1117 27.545L99.5755 27.3801L102.639 26.2911L102.642 26.29C102.71 26.2662 102.769 26.223 102.813 26.1658C102.856 26.1088 102.882 26.0403 102.887 25.9688C102.887 25.9686 102.887 25.9684 102.887 25.9682L103.124 22.2373C103.124 22.2371 103.124 22.2369 103.124 22.2367C103.133 22.0902 103.049 21.9466 102.901 21.8835L102.899 21.8827L99.6643 20.4967L99.3237 20.3508L99.1915 20.0047C98.9713 19.4279 98.7923 18.9931 98.6532 18.6918C98.5231 18.4116 98.3475 18.0667 98.1239 17.6546L97.9222 17.2829L98.0882 16.8939L99.4755 13.6423C99.4756 13.6421 99.4757 13.6418 99.4759 13.6415C99.5319 13.5088 99.5049 13.3594 99.403 13.2535C99.4029 13.2533 99.4028 13.2532 99.4027 13.2531L96.8009 10.5631L89.7275 11.0819ZM89.7275 11.0819L90.1812 11.1944M89.7275 11.0819L90.1812 11.1944M90.1812 11.1944C90.6165 11.3024 90.9797 11.4097 91.2751 11.5149L90.1812 11.1944ZM92.9983 12.2613L92.6043 12.0783C92.0392 11.8157 91.5989 11.6304 91.2753 11.515L92.9983 12.2613ZM92.9983 12.2613L93.3823 12.0581M92.9983 12.2613L93.3823 12.0581M93.3823 12.0581L96.3414 10.4921L96.3434 10.4911M93.3823 12.0581L96.3434 10.4911M96.3434 10.4911C96.4171 10.4518 96.5017 10.4376 96.5842 10.4506M96.3434 10.4911L96.5842 10.4506M96.5842 10.4506C96.6666 10.4636 96.7426 10.503 96.8007 10.5629L96.5842 10.4506ZM86.0432 17.7591C82.5692 17.7591 79.736 20.5442 79.736 24.0034C79.736 27.4623 82.5688 30.2496 86.0432 30.2496C89.5181 30.2496 92.3486 27.4619 92.3486 24.0034C92.3486 20.5445 89.5177 17.7591 86.0432 17.7591Z" fill="#6F00FF" stroke="#F2F4F8" stroke-width="1.75"/>
</g>
<defs>
<clipPath id="clip0_1279_3017">
<rect width="36" height="36" fill="white" transform="translate(68 6)"/>
</clipPath>
</defs>
</svg>
