<svg width="19" height="18" viewBox="0 0 19 18" fill="none" xmlns="http://www.w3.org/2000/svg">
<path d="M9.5 9H14.75M14.75 9L12.5 11.25M14.75 9L12.5 6.75M14.75 4.5V3.75C14.75 3.35218 14.592 2.97064 14.3107 2.68934C14.0294 2.40804 13.6478 2.25 13.25 2.25H5.75C5.35218 2.25 4.97064 2.40804 4.68934 2.68934C4.40804 2.97064 4.25 3.35218 4.25 3.75V14.25C4.25 14.6478 4.40804 15.0294 4.68934 15.3107C4.97064 15.592 5.35218 15.75 5.75 15.75H13.25C13.6478 15.75 14.0294 15.592 14.3107 15.3107C14.592 15.0294 14.75 14.6478 14.75 14.25V13.5" stroke="white" stroke-width="1.5" stroke-linecap="round" stroke-linejoin="round"/>
</svg>
