<svg width="18" height="19" viewBox="0 0 18 19" fill="none" xmlns="http://www.w3.org/2000/svg">
<path fill-rule="evenodd" clip-rule="evenodd" d="M1.12497 9.50022C1.12497 9.64941 1.18423 9.79248 1.28972 9.89797C1.39521 10.0035 1.53829 10.0627 1.68747 10.0627L14.9546 10.0627L11.4142 13.602C11.3086 13.7076 11.2493 13.8508 11.2493 14.0002C11.2493 14.1496 11.3086 14.2928 11.4142 14.3985C11.5198 14.5041 11.6631 14.5634 11.8125 14.5634C11.9618 14.5634 12.1051 14.5041 12.2107 14.3985L16.7107 9.89847C16.7631 9.84622 16.8047 9.78415 16.833 9.71581C16.8614 9.64747 16.876 9.57421 16.876 9.50022C16.876 9.42623 16.8614 9.35297 16.833 9.28463C16.8047 9.2163 16.7631 9.15422 16.7107 9.10197L12.2107 4.60197C12.1584 4.54967 12.0963 4.50819 12.028 4.47988C11.9597 4.45158 11.8864 4.43701 11.8125 4.43701C11.6631 4.43701 11.5198 4.49635 11.4142 4.60197C11.3086 4.70759 11.2493 4.85085 11.2493 5.00022C11.2493 5.14959 11.3086 5.29285 11.4142 5.39847L14.9546 8.93772L1.68747 8.93772C1.53829 8.93772 1.39521 8.99699 1.28972 9.10247C1.18423 9.20796 1.12497 9.35104 1.12497 9.50022Z" fill="white"/>
</svg>
