<svg width="18" height="18" viewBox="0 0 18 18" fill="none" xmlns="http://www.w3.org/2000/svg">
<path d="M8.15625 1.40625V0.84375C8.15625 0.619974 8.24514 0.405362 8.40338 0.247129C8.56161 0.0888948 8.77622 0 9 0C9.22378 0 9.43839 0.0888948 9.59662 0.247129C9.75485 0.405362 9.84375 0.619974 9.84375 0.84375V1.40625C9.84375 1.63003 9.75485 1.84464 9.59662 2.00287C9.43839 2.16111 9.22378 2.25 9 2.25C8.77622 2.25 8.56161 2.16111 8.40338 2.00287C8.24514 1.84464 8.15625 1.63003 8.15625 1.40625ZM14.0625 3.9375C14.1733 3.93759 14.2831 3.91584 14.3855 3.87349C14.488 3.83114 14.581 3.76903 14.6595 3.6907L15.222 3.1282C15.3004 3.04972 15.3627 2.95654 15.4052 2.854C15.4476 2.75145 15.4695 2.64154 15.4695 2.53055C15.4695 2.41955 15.4476 2.30964 15.4052 2.2071C15.3627 2.10455 15.3004 2.01138 15.222 1.93289C15.1435 1.85441 15.0503 1.79215 14.9477 1.74967C14.8452 1.7072 14.7353 1.68533 14.6243 1.68533C14.5133 1.68533 14.4034 1.7072 14.3008 1.74967C14.1983 1.79215 14.1051 1.85441 14.0266 1.93289L13.4641 2.49539C13.3454 2.6134 13.2645 2.76406 13.2317 2.92819C13.1988 3.09232 13.2155 3.26251 13.2797 3.41712C13.3438 3.57172 13.4525 3.70375 13.5919 3.79642C13.7313 3.88908 13.8951 3.93819 14.0625 3.9375ZM3.34055 3.6907C3.49906 3.84921 3.71404 3.93826 3.9382 3.93826C4.16237 3.93826 4.37735 3.84921 4.53586 3.6907C4.69437 3.53219 4.78342 3.31721 4.78342 3.09305C4.78342 2.86888 4.69437 2.6539 4.53586 2.49539L3.97336 1.93289C3.81485 1.77438 3.59987 1.68533 3.3757 1.68533C3.15154 1.68533 2.93656 1.77438 2.77805 1.93289C2.61954 2.0914 2.53049 2.30638 2.53049 2.53055C2.53049 2.75471 2.61954 2.96969 2.77805 3.1282L3.34055 3.6907ZM16.5938 12.375V14.0625C16.5938 14.4355 16.4456 14.7931 16.1819 15.0569C15.9181 15.3206 15.5605 15.4688 15.1875 15.4688H2.8125C2.43954 15.4688 2.08185 15.3206 1.81813 15.0569C1.55441 14.7931 1.40625 14.4355 1.40625 14.0625V12.375C1.40618 12.0508 1.51813 11.7366 1.72313 11.4854C1.92814 11.2343 2.21362 11.0617 2.53125 10.9969V9.84375C2.53125 8.12813 3.21278 6.48278 4.4259 5.26965C5.63903 4.05653 7.28438 3.375 9 3.375H9.04992C12.5859 3.40172 15.4688 6.33516 15.4688 9.91406V10.9969C15.7864 11.0617 16.0719 11.2343 16.2769 11.4854C16.4819 11.7366 16.5938 12.0508 16.5938 12.375ZM4.21875 9.84375V10.9688H13.7812V9.91406C13.7812 7.25836 11.6529 5.08219 9.03656 5.0625H9C7.73193 5.0625 6.5158 5.56624 5.61915 6.4629C4.72249 7.35955 4.21875 8.57568 4.21875 9.84375ZM14.9062 12.6562H3.09375V13.7812H14.9062V12.6562ZM9.59062 7.965C9.89322 8.06007 10.1684 8.22684 10.3926 8.45111C10.6169 8.67539 10.7837 8.95053 10.8788 9.25313C10.9459 9.46665 11.0951 9.64475 11.2935 9.74826C11.492 9.85177 11.7234 9.87221 11.937 9.80508C12.1505 9.73794 12.3286 9.58874 12.4321 9.39029C12.5356 9.19184 12.556 8.9604 12.4889 8.74688C12.3123 8.18539 12.0027 7.67486 11.5865 7.25865C11.1703 6.84244 10.6598 6.53287 10.0983 6.35625C9.88476 6.28912 9.65332 6.30955 9.45487 6.41307C9.25641 6.51658 9.10721 6.69468 9.04008 6.9082C8.97295 7.12172 8.99338 7.35317 9.09689 7.55162C9.2004 7.75007 9.37851 7.89927 9.59203 7.96641L9.59062 7.965Z" fill="#EE5968"/>
</svg>
