<svg width="32" height="32" viewBox="0 0 32 32" fill="none" xmlns="http://www.w3.org/2000/svg">
<path fill-rule="evenodd" clip-rule="evenodd" d="M16 32C24.8366 32 32 24.8366 32 16C32 7.16344 24.8366 0 16 0C7.16344 0 0 7.16344 0 16C0 24.8366 7.16344 32 16 32ZM14.3043 9.28142C14.897 8.06431 16.021 7.26939 17.449 7.0575C17.8566 6.99703 20.6137 6.97684 20.7586 7.0333C20.8078 7.05245 20.8823 7.10572 20.9241 7.15164C20.9987 7.23376 21 7.262 21 8.83755V10.4399L20.9125 10.5366C20.8644 10.5898 20.7869 10.6418 20.7404 10.6522C20.6939 10.6626 20.1829 10.6781 19.605 10.6866C19.027 10.695 18.4914 10.7192 18.4148 10.7403C18.147 10.8139 17.9482 10.9737 17.83 11.2102L17.7208 11.429L17.7091 12.6277L17.6973 13.8264L19.1886 13.8369L20.6799 13.8474L20.7856 13.9686L20.8913 14.0898V15.7615C20.8913 17.5748 20.8897 17.5904 20.693 17.6822C20.6244 17.7142 20.1956 17.7266 19.1503 17.7266H17.7027V21.6812C17.7027 25.477 17.7099 25.8055 17.5613 25.9081C17.5402 25.9227 17.5158 25.9328 17.4879 25.9476C17.3894 25.9998 17.1756 26.0056 15.6884 25.9965L14.0008 25.9861L13.8951 25.8649L13.7894 25.7436V21.7351V17.7266H12.5369C11.2347 17.7266 11.1876 17.7214 11.0635 17.5645C11.0063 17.492 11.0009 17.3394 11.0001 15.7754C10.9993 14.0902 11.0004 14.0643 11.0753 13.982C11.117 13.9361 11.1915 13.8828 11.2407 13.8637C11.2901 13.8444 11.8812 13.8288 12.5598 13.8288H13.7894V12.5322C13.7894 10.7029 13.8748 10.1632 14.3043 9.28142Z" fill="white" fill-opacity="0.7"/>
</svg>
