<svg width="80" height="80" viewBox="0 0 80 80" fill="none" xmlns="http://www.w3.org/2000/svg">
<path d="M50 33.3334L36.6667 46.6667L30 40M40 70C34.7467 70.0083 29.5842 68.6309 25.0333 66.0067C24.765 65.8304 24.4777 65.685 24.1767 65.5734C23.9959 65.5216 23.8074 65.5024 23.62 65.5167C23.325 65.5599 23.0363 65.6382 22.76 65.75L15.06 68.3134H15.0533C13.43 68.8567 12.6167 69.13 12.0767 68.9367C11.843 68.8538 11.6308 68.7198 11.4555 68.5445C11.2802 68.3692 11.1462 68.157 11.0633 67.9234C10.8733 67.3834 11.1433 66.5734 11.6833 64.95V64.94L14.25 57.2534L14.2567 57.2367C14.3967 56.8067 14.47 56.59 14.4833 56.3834C14.4978 56.1948 14.4786 56.0052 14.4267 55.8234C14.3183 55.528 14.1763 55.2462 14.0033 54.9834L13.9933 54.9667C10.6996 49.2449 9.38536 42.5964 10.2543 36.0517C11.1232 29.507 14.1267 23.4318 18.7993 18.7676C23.472 14.1035 29.5527 11.1109 36.0989 10.2539C42.6451 9.39685 49.2912 10.7232 55.0071 14.0272C60.7229 17.3313 65.1892 22.4286 67.7136 28.529C70.238 34.6294 70.6796 41.3922 68.9699 47.7691C67.2602 54.1459 63.4946 59.7807 58.257 63.8C53.0193 67.8193 46.6021 69.9986 40 70Z" stroke="#18CE82" stroke-width="3.33333" stroke-linecap="round" stroke-linejoin="round"/>
</svg>
