<svg width="18" height="18" viewBox="0 0 18 18" fill="none" xmlns="http://www.w3.org/2000/svg">
<path fill-rule="evenodd" clip-rule="evenodd" d="M9.00033 1.05273C6.8925 1.05273 4.871 1.89007 3.38053 3.38053C1.89007 4.871 1.05273 6.8925 1.05273 9.00033C1.05273 11.1082 1.89007 13.1297 3.38053 14.6201C4.871 16.1106 6.8925 16.9479 9.00033 16.9479C11.1082 16.9479 13.1297 16.1106 14.6201 14.6201C16.1106 13.1297 16.9479 11.1082 16.9479 9.00033C16.9479 6.8925 16.1106 4.871 14.6201 3.38053C13.1297 1.89007 11.1082 1.05273 9.00033 1.05273ZM2.19273 9.00033C2.19273 7.19485 2.90996 5.46331 4.18663 4.18663C5.46331 2.90996 7.19485 2.19273 9.00033 2.19273C10.8058 2.19273 12.5374 2.90996 13.814 4.18663C15.0907 5.46331 15.8079 7.19485 15.8079 9.00033C15.8079 10.8058 15.0907 12.5374 13.814 13.814C12.5374 15.0907 10.8058 15.8079 9.00033 15.8079C7.19485 15.8079 5.46331 15.0907 4.18663 13.814C2.90996 12.5374 2.19273 10.8058 2.19273 9.00033ZM9.60034 5.40033C9.60034 5.2412 9.53712 5.08859 9.4246 4.97607C9.31208 4.86355 9.15946 4.80033 9.00033 4.80033C8.84121 4.80033 8.68859 4.86355 8.57607 4.97607C8.46355 5.08859 8.40033 5.2412 8.40033 5.40033V9.00033C8.40019 9.07918 8.4156 9.15728 8.44566 9.23017C8.47572 9.30306 8.51985 9.36931 8.57553 9.42513L10.9755 11.8251C11.0882 11.9378 11.241 12.0011 11.4003 12.0011C11.5597 12.0011 11.7125 11.9378 11.8251 11.8251C11.9378 11.7125 12.0011 11.5597 12.0011 11.4003C12.0011 11.241 11.9378 11.0882 11.8251 10.9755L9.60034 8.75194V5.40033Z" fill="#FF7544"/>
</svg>
