<svg width="18" height="18" viewBox="0 0 18 18" fill="none" xmlns="http://www.w3.org/2000/svg">
<path d="M8.95 1C4.56649 1 1 4.56649 1 8.95C1 13.3335 4.56649 16.9 8.95 16.9C13.3335 16.9 16.9 13.3335 16.9 8.95C16.9 4.56649 13.3335 1 8.95 1ZM8.95 2.22308C12.6724 2.22308 15.6769 5.22757 15.6769 8.95C15.6769 10.6171 15.0715 12.1337 14.0716 13.3072L4.68758 3.73358C5.89035 2.75123 7.39706 2.21729 8.95 2.22308ZM3.82837 4.59279L13.2124 14.1664C12.0097 15.1488 10.5029 15.6827 8.95 15.6769C5.22757 15.6769 2.22308 12.6724 2.22308 8.95C2.22308 7.28295 2.8285 5.76633 3.82837 4.59279Z" fill="#93919D"/>
</svg>
