<svg width="18" height="18" viewBox="0 0 18 18" fill="none" xmlns="http://www.w3.org/2000/svg">
<path d="M15.7733 4.29048C15.8786 4.39595 15.9378 4.53892 15.9378 4.68798C15.9378 4.83704 15.8786 4.98001 15.7733 5.08548L7.14825 13.7105C7.09543 13.7637 7.03247 13.8058 6.96309 13.8342C6.89371 13.8626 6.81932 13.8769 6.74435 13.876C6.66937 13.8752 6.59533 13.8593 6.5266 13.8293C6.45788 13.7993 6.39587 13.7559 6.34425 13.7015L2.21925 9.38898C2.16588 9.33608 2.12365 9.27302 2.09505 9.20352C2.06645 9.13402 2.05207 9.0595 2.05276 8.98436C2.05344 8.90921 2.06918 8.83496 2.09903 8.766C2.12889 8.69703 2.17226 8.63475 2.22659 8.58283C2.28092 8.5309 2.3451 8.4904 2.41535 8.46369C2.48559 8.43699 2.56048 8.42463 2.63558 8.42734C2.71068 8.43006 2.78447 8.4478 2.8526 8.47951C2.92073 8.51123 2.98182 8.55627 3.03225 8.61198L6.75975 12.5082L14.9783 4.29048C15.0837 4.18514 15.2267 4.12598 15.3758 4.12598C15.5248 4.12598 15.6678 4.18514 15.7733 4.29048Z" fill="#18CE82"/>
</svg>
