<svg width="18" height="18" viewBox="0 0 18 18" fill="none" xmlns="http://www.w3.org/2000/svg">
<path d="M13.4355 3.77229L9.00074 8.20704L4.56599 3.77229C4.45933 3.67469 4.31912 3.622 4.17458 3.6252C4.03003 3.6284 3.8923 3.68725 3.79006 3.78949C3.68783 3.89172 3.62898 4.02946 3.62578 4.174C3.62257 4.31855 3.67526 4.45876 3.77287 4.56542L8.20537 9.00017L3.77174 13.4338C3.71758 13.4854 3.67428 13.5473 3.64439 13.6159C3.6145 13.6845 3.59863 13.7584 3.5977 13.8332C3.59677 13.908 3.61081 13.9823 3.63899 14.0516C3.66717 14.1209 3.70893 14.1839 3.7618 14.2369C3.81467 14.2898 3.87759 14.3316 3.94687 14.3599C4.01614 14.3882 4.09037 14.4023 4.16519 14.4015C4.24001 14.4007 4.31391 14.3849 4.38255 14.3551C4.45118 14.3253 4.51317 14.2821 4.56487 14.228L9.00074 9.79442L13.4355 14.2292C13.5422 14.3268 13.6824 14.3795 13.8269 14.3763C13.9715 14.3731 14.1092 14.3142 14.2114 14.212C14.3137 14.1097 14.3725 13.972 14.3757 13.8275C14.3789 13.6829 14.3262 13.5427 14.2286 13.436L9.79387 9.00129L14.2286 4.56542C14.2828 4.5138 14.3261 4.45187 14.356 4.38327C14.3859 4.31468 14.4017 4.2408 14.4027 4.16598C14.4036 4.09117 14.3896 4.01692 14.3614 3.9476C14.3332 3.87829 14.2914 3.81531 14.2386 3.76236C14.1857 3.70941 14.1228 3.66757 14.0535 3.63929C13.9842 3.61101 13.91 3.59687 13.8352 3.59769C13.7604 3.59851 13.6865 3.61428 13.6178 3.64407C13.5492 3.67386 13.4872 3.71708 13.4355 3.77117V3.77229Z" fill="#F6354C"/>
</svg>
