<svg width="50" height="50" viewBox="0 0 50 50" fill="none" xmlns="http://www.w3.org/2000/svg">
<g clip-path="url(#clip0_749_10833)">
<g filter="url(#filter0_d_749_10833)">
<path d="M37.6654 21.0003C37.6659 22.7118 37.1597 24.3851 36.2105 25.8093C35.2614 27.2335 33.9119 28.3447 32.332 29.003V29.0003C32.332 25.9945 31.138 23.1119 29.0126 20.9864C26.8872 18.861 24.0045 17.667 20.9987 17.667H20.996C21.7678 15.8186 23.1557 14.2945 24.924 13.3537C26.6923 12.4129 28.7319 12.1134 30.696 12.5062C32.6601 12.899 34.4276 13.9597 35.6981 15.5082C36.9686 17.0567 37.6638 18.9973 37.6654 21.0003ZM18.332 13.0003C16.9175 13.0003 15.561 13.5622 14.5608 14.5624C13.5606 15.5626 12.9987 16.9192 12.9987 18.3337V20.3337H15.6654V18.3337C15.6654 17.6264 15.9463 16.9481 16.4464 16.448C16.9465 15.9479 17.6248 15.667 18.332 15.667H20.332V13.0003H18.332ZM34.332 29.667V31.667C34.332 32.3742 34.0511 33.0525 33.551 33.5526C33.0509 34.0527 32.3726 34.3337 31.6654 34.3337H29.6654V37.0003H31.6654C33.0799 37.0003 34.4364 36.4384 35.4366 35.4382C36.4368 34.438 36.9987 33.0815 36.9987 31.667V29.667H34.332ZM20.9987 37.667C23.2972 37.667 25.5016 36.7539 27.127 35.1286C28.7523 33.5033 29.6654 31.2989 29.6654 29.0003C29.6654 26.7018 28.7523 24.4974 27.127 22.8721C25.5016 21.2467 23.2972 20.3337 20.9987 20.3337C18.7002 20.3337 16.4958 21.2467 14.8704 22.8721C13.2451 24.4974 12.332 26.7018 12.332 29.0003C12.332 31.2989 13.2451 33.5033 14.8704 35.1286C16.4958 36.7539 18.7002 37.667 20.9987 37.667ZM20.9987 25.667L24.332 29.0003L20.9987 32.3337L17.6654 29.0003L20.9987 25.667Z" fill="#F9F871"/>
</g>
</g>
<defs>
<filter id="filter0_d_749_10833" x="0.332031" y="8.33789" width="49.334" height="49.3291" filterUnits="userSpaceOnUse" color-interpolation-filters="sRGB">
<feFlood flood-opacity="0" result="BackgroundImageFix"/>
<feColorMatrix in="SourceAlpha" type="matrix" values="0 0 0 0 0 0 0 0 0 0 0 0 0 0 0 0 0 0 127 0" result="hardAlpha"/>
<feOffset dy="8"/>
<feGaussianBlur stdDeviation="6"/>
<feComposite in2="hardAlpha" operator="out"/>
<feColorMatrix type="matrix" values="0 0 0 0 0.0721191 0 0 0 0 0.0721191 0 0 0 0 0.0314688 0 0 0 0.4 0"/>
<feBlend mode="normal" in2="BackgroundImageFix" result="effect1_dropShadow_749_10833"/>
<feBlend mode="normal" in="SourceGraphic" in2="effect1_dropShadow_749_10833" result="shape"/>
</filter>
<clipPath id="clip0_749_10833">
<rect width="50" height="50" fill="white"/>
</clipPath>
</defs>
</svg>
